Coordinates
version=1
nRows=16
nColumns=40
inDegrees=yes

Units are S.I. units (second, meters, Newtons, ...)
Angles are in degrees.

endheader
time	pelvis_tilt	pelvis_list	pelvis_rotation	pelvis_tx	pelvis_ty	pelvis_tz	hip_flexion_r	hip_adduction_r	hip_rotation_r	knee_angle_r	knee_angle_r_beta	ankle_angle_r	subtalar_angle_r	mtp_angle_r	hip_flexion_l	hip_adduction_l	hip_rotation_l	knee_angle_l	knee_angle_l_beta	ankle_angle_l	subtalar_angle_l	mtp_angle_l	lumbar_extension	lumbar_bending	lumbar_rotation	arm_flex_r	arm_add_r	arm_rot_r	elbow_flex_r	pro_sup_r	wrist_flex_r	wrist_dev_r	arm_flex_l	arm_add_l	arm_rot_l	elbow_flex_l	pro_sup_l	wrist_flex_l	wrist_dev_l
     40.05000000	     -6.67139966	     -4.36489514	     -4.00030704	      1.04291095	      0.92368342	      0.42360935	     31.04309279	     -2.48339143	    -12.56694429	     18.02198580	     18.02198580	      4.15897444	      0.23588304	      7.82694846	      1.56577868	     -4.50990316	    -13.37507381	     10.84551885	     10.84551885	     16.38765199	     -3.18029139	     -6.47270763	    -12.02930482	      4.08975189	      2.03267533	    -11.04569117	    -15.73732822	     -3.11359779	     30.07398008	     46.55497435	      0.00000000	      0.00000000	     22.26473297	    -19.69552445	     -4.78524737	     82.67409841	     47.30388409	      0.00000000	      0.00000000
     40.06157143	     -6.68206556	     -4.17622835	     -3.95509082	      1.04382803	      0.92189116	      0.42491101	     30.57647310	     -2.28014182	    -13.25545652	     16.43092552	     16.43092552	      4.11276342	      1.08768333	      8.56189579	      0.66916018	     -4.30027224	    -13.49340802	     10.33140516	     10.33140516	     16.76426273	     -2.75790880	     -6.65342661	    -11.94125033	      3.91937385	      2.15142054	    -12.69410585	    -15.67260624	     -3.20231168	     29.84410882	     46.54932092	      0.00000000	      0.00000000	     22.61084972	    -19.71520751	     -5.01877810	     84.43673997	     47.36310059	      0.00000000	      0.00000000
     40.07314286	     -6.64866907	     -4.03262386	     -3.89006255	      1.04503656	      0.92013654	      0.42636596	     30.08685733	     -2.08001115	    -13.93306736	     15.37961714	     15.37961714	      4.03973045	      1.87233108	      9.05195594	     -0.21489609	     -4.17330106	    -13.58775459	      9.98501814	      9.98501814	     17.16733031	     -2.32770077	     -6.76509126	    -11.81613268	      3.81720574	      2.30852491	    -14.36290926	    -15.52975142	     -3.34312712	     29.78389517	     46.53970967	      0.00000000	      0.00000000	     22.81194610	    -19.73313824	     -5.30401945	     86.51023135	     47.43330015	      0.00000000	      0.00000000
     40.08471429	     -6.68795827	     -3.86359480	     -3.73246418	      1.04618793	      0.91819850	      0.42793695	     29.92481905	     -1.98456600	    -14.31038040	     15.17474182	     15.17474182	      3.89015077	      1.93576522	      9.13642298	     -0.80505557	     -4.08330322	    -13.45250291	     10.01213058	     10.01213058	     17.61821219	     -2.20135624	     -6.89972051	    -11.55489936	      3.73595055	      2.08675901	    -15.69628712	    -15.39825047	     -3.38497556	     29.48611538	     46.54118848	      0.00000000	      0.00000000	     23.00647060	    -20.04900871	     -5.57916453	     87.21976837	     47.46879018	      0.00000000	      0.00000000
     40.09628571	     -6.61811190	     -3.88457902	     -3.67453084	      1.04758003	      0.91655669	      0.42985606	     29.43091952	     -1.70954119	    -14.95709281	     14.93145964	     14.93145964	      3.08995531	      2.54579442	      7.51974909	     -1.39217352	     -4.32438085	    -13.95015615	     10.44476938	     10.44476938	     18.74794795	     -1.15542040	     -6.04626285	    -11.65774557	      3.75319897	      1.82446537	    -17.23457835	    -15.24289744	     -4.16468808	     31.19241321	     46.48000730	      0.00000000	      0.00000000	     21.89754710	    -20.15370909	     -6.65589546	     91.43394877	     47.66434211	      0.00000000	      0.00000000
     40.10785714	     -6.61231587	     -3.92221406	     -3.52543939	      1.04891235	      0.91502162	      0.43178692	     29.17860956	     -1.48665623	    -15.16496788	     15.30404824	     15.30404824	      2.69580783	      2.45220874	      7.08386029	     -1.84078733	     -4.54770792	    -13.82461511	     10.89131503	     10.89131503	     19.24154432	     -1.22803889	     -5.99710867	    -11.49930083	      3.86109151	      1.98928581	    -18.32942236	    -14.97884685	     -4.12387667	     30.83201954	     46.47823934	      0.00000000	      0.00000000	     21.98637545	    -19.92889720	     -6.87446565	     92.28305784	     47.70303285	      0.00000000	      0.00000000
     40.11942857	     -6.58452073	     -3.97139593	     -3.35938707	      1.05032732	      0.91380212	      0.43386111	     28.86321764	     -1.28820646	    -15.31644120	     15.81854471	     15.81854471	      2.41667427	      2.28866123	      6.71158548	     -2.28129491	     -4.80757557	    -13.60014029	     11.38703119	     11.38703119	     19.63706482	     -1.29248256	     -6.00504502	    -11.35389685	      3.98515945	      2.03915512	    -19.20684759	    -14.66672394	     -4.09359092	     30.56411181	     46.47738376	      0.00000000	      0.00000000	     21.83628400	    -19.86606798	     -7.03768556	     92.80277089	     47.72621046	      0.00000000	      0.00000000
     40.13100000	     -6.61200737	     -4.09867077	     -3.20440634	      1.05169227	      0.91238553	      0.43623312	     28.53205525	     -0.95121656	    -15.07556530	     16.16225332	     16.16225332	      0.27563266	      1.18272247	      0.74552687	     -2.00052707	     -5.49159754	    -14.23064041	     13.37696077	     13.37696077	     21.60752287	     -0.03642218	     -3.73507124	    -11.30788098	      4.10281597	      1.66447247	    -19.73473178	    -14.41190695	     -4.50244685	     31.12735717	     46.44481951	      0.00000000	      0.00000000	     20.63180836	    -19.69550979	     -8.35460096	     95.90362135	     47.92556856	      0.00000000	      0.00000000
     40.14257143	     -6.62459761	     -4.24651359	     -3.03647293	      1.05299163	      0.91156892	      0.43851282	     28.40708922	     -0.76103175	    -15.01029398	     17.17662620	     17.17662620	      0.18981189	      0.74238396	      0.00958322	     -1.97638540	     -5.98057929	    -13.86522564	     14.65623620	     14.65623620	     21.95248757	     -0.59048150	     -3.76749125	    -11.19590657	      4.31905237	      1.99718472	    -20.23109542	    -14.06063990	     -4.34843829	     30.72127396	     46.44087312	      0.00000000	      0.00000000	     20.45868694	    -19.17962734	     -8.45064201	     96.30905959	     47.94993148	      0.00000000	      0.00000000
     40.15414286	     -6.63036965	     -4.45783597	     -2.87291161	      1.05428035	      0.91110477	      0.44094610	     28.22250653	     -0.49443712	    -14.81465854	     18.12814374	     18.12814374	      0.22908941	      0.12181059	     -0.74601877	     -1.78114579	     -6.61435860	    -13.56614027	     16.27214795	     16.27214795	     22.22615680	     -1.11036683	     -3.83910309	    -11.10698165	      4.58409268	      2.21476126	    -20.43844920	    -13.69701673	     -4.23016463	     30.45960897	     46.43602946	      0.00000000	      0.00000000	     19.99938364	    -18.75317398	     -8.61468932	     96.77344991	     47.97794509	      0.00000000	      0.00000000
     40.16571429	     -6.60577142	     -4.73296217	     -2.74325012	      1.05558177	      0.91107413	      0.44363825	     27.89615516	     -0.06159364	    -14.34364970	     18.83857749	     18.83857749	      0.04621186	     -1.05387615	     -2.21561231	     -1.43458235	     -7.43502467	    -13.49969845	     18.27593338	     18.27593338	     22.59104124	     -1.22386689	     -3.65420563	    -11.08853953	      4.88169070	      2.02505576	    -20.00722951	    -13.44074516	     -3.92400552	     29.90162048	     46.42058045	      0.00000000	      0.00000000	     18.88724840	    -18.41758184	     -9.49066026	     97.65790040	     48.08974847	      0.00000000	      0.00000000
     40.17728571	     -6.57858116	     -4.98719504	     -2.60823260	      1.05680558	      0.91142300	      0.44630712	     27.57993519	      0.24448127	    -14.24790176	     19.63289186	     19.63289186	      0.50708608	     -1.41803259	     -2.52893221	     -0.95638633	     -8.19144836	    -13.05197600	     20.41372256	     20.41372256	     22.40588226	     -2.05272131	     -4.05911666	    -11.08838045	      5.16981491	      2.29553639	    -19.79102879	    -13.10131006	     -3.75208495	     29.78166892	     46.41056018	      0.00000000	      0.00000000	     18.19561208	    -17.92364886	     -9.54172296	     97.74281195	     48.10035327	      0.00000000	      0.00000000
     40.18885714	     -6.53547182	     -5.26394447	     -2.49311364	      1.05801037	      0.91212770	      0.44915054	     27.16001590	      0.63040362	    -14.06319612	     20.24101789	     20.24101789	      1.08212698	     -1.91046682	     -2.64978743	     -0.31195815	     -9.03446019	    -12.61805033	     22.85710098	     22.85710098	     21.94807030	     -2.90664153	     -4.70468480	    -11.11944192	      5.45328184	      2.50892483	    -19.32063178	    -12.80615115	     -3.57276346	     29.71995412	     46.40036885	      0.00000000	      0.00000000	     17.33257018	    -17.44426635	     -9.66917176	     97.69563954	     48.11134324	      0.00000000	      0.00000000
     40.20042857	     -6.24661055	     -5.40373797	     -2.48806343	      1.05944955	      0.91357507	      0.45212818	     26.35791509	      0.93346635	    -13.82631523	     20.63023486	     20.63023486	      1.74906077	     -2.12274814	     -2.77820917	      0.03336079	     -9.70348179	    -12.29455784	     25.24535958	     25.24535958	     21.21346763	     -3.69270366	     -5.20861389	    -11.43535409	      5.53178949	      2.83197884	    -18.65193324	    -12.47583501	     -3.44338552	     29.83225179	     46.39021693	      0.00000000	      0.00000000	     16.29906014	    -16.94531313	     -9.63291353	     97.40470085	     48.10124900	      0.00000000	      0.00000000
     40.21200000	     -6.45465049	     -5.79721283	     -2.32243029	      1.06033499	      0.91430945	      0.45521948	     26.02632471	      1.49762408	    -13.80695975	     20.82950815	     20.82950815	      2.34781325	     -2.62393720	     -2.58907581	      1.56628095	    -10.82266894	    -11.57475667	     28.63060927	     28.63060927	     19.98101054	     -4.89759569	     -6.58511540	    -11.16553859	      5.90716756	      2.84954553	    -17.82917668	    -12.27677324	     -3.23071257	     29.86578823	     46.37723077	      0.00000000	      0.00000000	     15.24539558	    -16.48378599	     -9.88917105	     97.05105029	     48.11247686	      0.00000000	      0.00000000
     40.22357143	     -6.40668614	     -5.99600821	     -2.28605955	      1.06150200	      0.91566521	      0.45838407	     25.42135301	      1.94224499	    -13.48462170	     21.06572210	     21.06572210	      3.53651392	     -2.98185692	     -0.81934552	      2.47124221	    -11.56119400	    -10.84486500	     31.05969933	     31.05969933	     15.78039334	     -7.75922592	    -13.67772637	    -11.14826698	      5.99663988	      2.16135884	    -15.98733938	    -12.30291156	     -1.71846620	     29.16987813	     46.29399385	      0.00000000	      0.00000000	     13.32934272	    -15.87444871	    -11.77821416	     96.93979665	     48.26840643	      0.00000000	      0.00000000
